<svg width="18" height="18" viewBox="0 0 18 18" fill="none" xmlns="http://www.w3.org/2000/svg">
<path d="M16.4375 8.23755H10.0625V1.86255C10.0625 1.58076 9.95056 1.31051 9.7513 1.11125C9.55204 0.911991 9.28179 0.800049 9 0.800049C8.71821 0.800049 8.44796 0.911991 8.2487 1.11125C8.04944 1.31051 7.9375 1.58076 7.9375 1.86255V8.23755H1.5625C1.28071 8.23755 1.01046 8.34949 0.811199 8.54875C0.611942 8.74801 0.5 9.01826 0.5 9.30005C0.5 9.58184 0.611942 9.85209 0.811199 10.0513C1.01046 10.2506 1.28071 10.3625 1.5625 10.3625H7.9375V16.7375C7.9375 17.0193 8.04944 17.2896 8.2487 17.4888C8.44796 17.6881 8.71821 17.8 9 17.8C9.28179 17.8 9.55204 17.6881 9.7513 17.4888C9.95056 17.2896 10.0625 17.0193 10.0625 16.7375V10.3625H16.4375C16.7193 10.3625 16.9895 10.2506 17.1888 10.0513C17.3881 9.85209 17.5 9.58184 17.5 9.30005C17.5 9.01826 17.3881 8.74801 17.1888 8.54875C16.9895 8.34949 16.7193 8.23755 16.4375 8.23755Z" fill="white"/>
</svg>
